<mxfile host="Electron" modified="2024-01-29T13:02:03.625Z" agent="Mozilla/5.0 (Windows NT 10.0; Win64; x64) AppleWebKit/537.36 (KHTML, like Gecko) draw.io/21.2.1 Chrome/112.0.5615.87 Electron/24.1.2 Safari/537.36" etag="VpOrf6RGEhHrOZIs5vTj" version="21.2.1" type="device">
  <diagram name="Page-1" id="aUn1W-EV7tuT-PsDjz57">
    <mxGraphModel dx="1200" dy="775" grid="1" gridSize="10" guides="1" tooltips="1" connect="1" arrows="1" fold="1" page="1" pageScale="1" pageWidth="850" pageHeight="1100" math="0" shadow="0">
      <root>
        <mxCell id="0" />
        <mxCell id="1" parent="0" />
        <mxCell id="1OdgZpJMKYCvz7Xs0OIa-13" style="edgeStyle=orthogonalEdgeStyle;rounded=0;orthogonalLoop=1;jettySize=auto;html=1;entryX=0;entryY=0.5;entryDx=0;entryDy=0;" edge="1" parent="1" source="1OdgZpJMKYCvz7Xs0OIa-1" target="1OdgZpJMKYCvz7Xs0OIa-2">
          <mxGeometry relative="1" as="geometry">
            <Array as="points">
              <mxPoint x="460" y="90" />
            </Array>
          </mxGeometry>
        </mxCell>
        <mxCell id="1OdgZpJMKYCvz7Xs0OIa-15" style="edgeStyle=orthogonalEdgeStyle;rounded=0;orthogonalLoop=1;jettySize=auto;html=1;entryX=0;entryY=0.5;entryDx=0;entryDy=0;" edge="1" parent="1" source="1OdgZpJMKYCvz7Xs0OIa-1" target="1OdgZpJMKYCvz7Xs0OIa-14">
          <mxGeometry relative="1" as="geometry">
            <Array as="points">
              <mxPoint x="450" y="410" />
            </Array>
          </mxGeometry>
        </mxCell>
        <mxCell id="1OdgZpJMKYCvz7Xs0OIa-1" value="DirWatcher" style="rounded=0;whiteSpace=wrap;html=1;" vertex="1" parent="1">
          <mxGeometry x="400" y="250" width="120" height="60" as="geometry" />
        </mxCell>
        <mxCell id="1OdgZpJMKYCvz7Xs0OIa-4" style="edgeStyle=orthogonalEdgeStyle;rounded=0;orthogonalLoop=1;jettySize=auto;html=1;startArrow=classic;startFill=1;" edge="1" parent="1" source="1OdgZpJMKYCvz7Xs0OIa-2" target="1OdgZpJMKYCvz7Xs0OIa-3">
          <mxGeometry relative="1" as="geometry" />
        </mxCell>
        <mxCell id="1OdgZpJMKYCvz7Xs0OIa-8" style="edgeStyle=orthogonalEdgeStyle;rounded=0;orthogonalLoop=1;jettySize=auto;html=1;entryX=0;entryY=0.5;entryDx=0;entryDy=0;" edge="1" parent="1" source="1OdgZpJMKYCvz7Xs0OIa-2" target="1OdgZpJMKYCvz7Xs0OIa-7">
          <mxGeometry relative="1" as="geometry" />
        </mxCell>
        <mxCell id="1OdgZpJMKYCvz7Xs0OIa-2" value="file watcher" style="rounded=0;whiteSpace=wrap;html=1;" vertex="1" parent="1">
          <mxGeometry x="600" y="60" width="120" height="60" as="geometry" />
        </mxCell>
        <mxCell id="1OdgZpJMKYCvz7Xs0OIa-3" value="" style="sketch=0;outlineConnect=0;fontColor=#232F3E;gradientColor=none;fillColor=#3F8624;strokeColor=none;dashed=0;verticalLabelPosition=bottom;verticalAlign=top;align=center;html=1;fontSize=12;fontStyle=0;aspect=fixed;pointerEvents=1;shape=mxgraph.aws4.file_system;" vertex="1" parent="1">
          <mxGeometry x="621" y="243.5" width="78" height="73" as="geometry" />
        </mxCell>
        <mxCell id="1OdgZpJMKYCvz7Xs0OIa-5" value="listen for add, remove &lt;br&gt;and update operations" style="text;html=1;align=center;verticalAlign=middle;resizable=0;points=[];autosize=1;strokeColor=none;fillColor=none;" vertex="1" parent="1">
          <mxGeometry x="660" y="160" width="140" height="40" as="geometry" />
        </mxCell>
        <mxCell id="1OdgZpJMKYCvz7Xs0OIa-11" style="edgeStyle=orthogonalEdgeStyle;rounded=0;orthogonalLoop=1;jettySize=auto;html=1;entryX=0.5;entryY=0;entryDx=0;entryDy=0;entryPerimeter=0;" edge="1" parent="1" source="1OdgZpJMKYCvz7Xs0OIa-7" target="1OdgZpJMKYCvz7Xs0OIa-10">
          <mxGeometry relative="1" as="geometry" />
        </mxCell>
        <mxCell id="1OdgZpJMKYCvz7Xs0OIa-7" value="event recived?" style="rhombus;whiteSpace=wrap;html=1;" vertex="1" parent="1">
          <mxGeometry x="890" y="50" width="80" height="80" as="geometry" />
        </mxCell>
        <mxCell id="1OdgZpJMKYCvz7Xs0OIa-17" style="edgeStyle=orthogonalEdgeStyle;rounded=0;orthogonalLoop=1;jettySize=auto;html=1;entryX=1;entryY=0.5;entryDx=0;entryDy=0;endArrow=none;endFill=0;startArrow=classic;startFill=1;" edge="1" parent="1" source="1OdgZpJMKYCvz7Xs0OIa-32" target="1OdgZpJMKYCvz7Xs0OIa-14">
          <mxGeometry relative="1" as="geometry">
            <Array as="points">
              <mxPoint x="770" y="410" />
              <mxPoint x="770" y="410" />
            </Array>
          </mxGeometry>
        </mxCell>
        <mxCell id="1OdgZpJMKYCvz7Xs0OIa-10" value="sqllite" style="shape=cylinder3;whiteSpace=wrap;html=1;boundedLbl=1;backgroundOutline=1;size=15;" vertex="1" parent="1">
          <mxGeometry x="900" y="200" width="60" height="80" as="geometry" />
        </mxCell>
        <mxCell id="1OdgZpJMKYCvz7Xs0OIa-12" value="store &lt;br&gt;the event" style="text;html=1;align=center;verticalAlign=middle;resizable=0;points=[];autosize=1;strokeColor=none;fillColor=none;" vertex="1" parent="1">
          <mxGeometry x="930" y="143" width="70" height="40" as="geometry" />
        </mxCell>
        <mxCell id="1OdgZpJMKYCvz7Xs0OIa-20" style="edgeStyle=orthogonalEdgeStyle;rounded=0;orthogonalLoop=1;jettySize=auto;html=1;entryX=0.5;entryY=0;entryDx=0;entryDy=0;" edge="1" parent="1" source="1OdgZpJMKYCvz7Xs0OIa-14" target="1OdgZpJMKYCvz7Xs0OIa-19">
          <mxGeometry relative="1" as="geometry" />
        </mxCell>
        <mxCell id="1OdgZpJMKYCvz7Xs0OIa-14" value="cron job" style="rounded=0;whiteSpace=wrap;html=1;" vertex="1" parent="1">
          <mxGeometry x="600" y="380" width="120" height="60" as="geometry" />
        </mxCell>
        <mxCell id="1OdgZpJMKYCvz7Xs0OIa-16" value="start the &lt;br&gt;cron job" style="text;html=1;align=center;verticalAlign=middle;resizable=0;points=[];autosize=1;strokeColor=none;fillColor=none;" vertex="1" parent="1">
          <mxGeometry x="450" y="353" width="70" height="40" as="geometry" />
        </mxCell>
        <mxCell id="1OdgZpJMKYCvz7Xs0OIa-18" value="read the &lt;br&gt;content" style="text;html=1;align=center;verticalAlign=middle;resizable=0;points=[];autosize=1;strokeColor=none;fillColor=none;" vertex="1" parent="1">
          <mxGeometry x="930" y="300" width="70" height="40" as="geometry" />
        </mxCell>
        <mxCell id="1OdgZpJMKYCvz7Xs0OIa-22" style="edgeStyle=orthogonalEdgeStyle;rounded=0;orthogonalLoop=1;jettySize=auto;html=1;entryX=0.5;entryY=0;entryDx=0;entryDy=0;" edge="1" parent="1" source="1OdgZpJMKYCvz7Xs0OIa-19" target="1OdgZpJMKYCvz7Xs0OIa-21">
          <mxGeometry relative="1" as="geometry" />
        </mxCell>
        <mxCell id="1OdgZpJMKYCvz7Xs0OIa-25" style="edgeStyle=orthogonalEdgeStyle;rounded=0;orthogonalLoop=1;jettySize=auto;html=1;entryX=1;entryY=0.5;entryDx=0;entryDy=0;entryPerimeter=0;" edge="1" parent="1" source="1OdgZpJMKYCvz7Xs0OIa-19" target="1OdgZpJMKYCvz7Xs0OIa-10">
          <mxGeometry relative="1" as="geometry">
            <Array as="points">
              <mxPoint x="1040" y="540" />
              <mxPoint x="1040" y="240" />
            </Array>
          </mxGeometry>
        </mxCell>
        <mxCell id="1OdgZpJMKYCvz7Xs0OIa-19" value="count the magic string" style="rounded=0;whiteSpace=wrap;html=1;" vertex="1" parent="1">
          <mxGeometry x="600" y="510" width="120" height="60" as="geometry" />
        </mxCell>
        <mxCell id="1OdgZpJMKYCvz7Xs0OIa-21" value="postgresql" style="shape=datastore;whiteSpace=wrap;html=1;" vertex="1" parent="1">
          <mxGeometry x="630" y="640" width="60" height="60" as="geometry" />
        </mxCell>
        <mxCell id="1OdgZpJMKYCvz7Xs0OIa-23" value="store the &lt;br&gt;run details" style="text;html=1;align=center;verticalAlign=middle;resizable=0;points=[];autosize=1;strokeColor=none;fillColor=none;" vertex="1" parent="1">
          <mxGeometry x="660" y="580" width="80" height="40" as="geometry" />
        </mxCell>
        <mxCell id="1OdgZpJMKYCvz7Xs0OIa-24" value="[1]" style="text;html=1;align=center;verticalAlign=middle;resizable=0;points=[];autosize=1;strokeColor=none;fillColor=none;" vertex="1" parent="1">
          <mxGeometry x="620" y="585" width="40" height="30" as="geometry" />
        </mxCell>
        <mxCell id="1OdgZpJMKYCvz7Xs0OIa-26" value="delete all the entries created before&lt;br&gt;&amp;nbsp;the time stamp of the job run" style="text;html=1;align=center;verticalAlign=middle;resizable=0;points=[];autosize=1;strokeColor=none;fillColor=none;" vertex="1" parent="1">
          <mxGeometry x="800" y="500" width="210" height="40" as="geometry" />
        </mxCell>
        <mxCell id="1OdgZpJMKYCvz7Xs0OIa-28" style="edgeStyle=orthogonalEdgeStyle;rounded=0;orthogonalLoop=1;jettySize=auto;html=1;entryX=0;entryY=0.5;entryDx=0;entryDy=0;" edge="1" parent="1" source="1OdgZpJMKYCvz7Xs0OIa-27" target="1OdgZpJMKYCvz7Xs0OIa-1">
          <mxGeometry relative="1" as="geometry" />
        </mxCell>
        <mxCell id="1OdgZpJMKYCvz7Xs0OIa-30" style="edgeStyle=orthogonalEdgeStyle;rounded=0;orthogonalLoop=1;jettySize=auto;html=1;entryX=0;entryY=0.5;entryDx=0;entryDy=0;" edge="1" parent="1" source="1OdgZpJMKYCvz7Xs0OIa-27" target="1OdgZpJMKYCvz7Xs0OIa-21">
          <mxGeometry relative="1" as="geometry">
            <Array as="points">
              <mxPoint x="170" y="670" />
            </Array>
          </mxGeometry>
        </mxCell>
        <mxCell id="1OdgZpJMKYCvz7Xs0OIa-27" value="API server" style="rounded=0;whiteSpace=wrap;html=1;" vertex="1" parent="1">
          <mxGeometry x="110" y="250" width="120" height="60" as="geometry" />
        </mxCell>
        <mxCell id="1OdgZpJMKYCvz7Xs0OIa-29" value="start the DirWatcher" style="text;html=1;align=center;verticalAlign=middle;resizable=0;points=[];autosize=1;strokeColor=none;fillColor=none;" vertex="1" parent="1">
          <mxGeometry x="250" y="250" width="130" height="30" as="geometry" />
        </mxCell>
        <mxCell id="1OdgZpJMKYCvz7Xs0OIa-31" value="query the database to&lt;br&gt;&amp;nbsp;get the job run details" style="text;html=1;align=center;verticalAlign=middle;resizable=0;points=[];autosize=1;strokeColor=none;fillColor=none;" vertex="1" parent="1">
          <mxGeometry x="170" y="440" width="140" height="40" as="geometry" />
        </mxCell>
        <mxCell id="1OdgZpJMKYCvz7Xs0OIa-33" value="" style="edgeStyle=orthogonalEdgeStyle;rounded=0;orthogonalLoop=1;jettySize=auto;html=1;entryX=1;entryY=0.5;entryDx=0;entryDy=0;startArrow=classic;startFill=1;endArrow=none;endFill=0;" edge="1" parent="1" source="1OdgZpJMKYCvz7Xs0OIa-10" target="1OdgZpJMKYCvz7Xs0OIa-32">
          <mxGeometry relative="1" as="geometry">
            <mxPoint x="930" y="280" as="sourcePoint" />
            <mxPoint x="720" y="430" as="targetPoint" />
            <Array as="points">
              <mxPoint x="930" y="410" />
            </Array>
          </mxGeometry>
        </mxCell>
        <mxCell id="1OdgZpJMKYCvz7Xs0OIa-35" style="edgeStyle=orthogonalEdgeStyle;rounded=0;orthogonalLoop=1;jettySize=auto;html=1;entryX=0.5;entryY=0;entryDx=0;entryDy=0;" edge="1" parent="1" source="1OdgZpJMKYCvz7Xs0OIa-32" target="1OdgZpJMKYCvz7Xs0OIa-19">
          <mxGeometry relative="1" as="geometry">
            <mxPoint x="660" y="490" as="targetPoint" />
            <Array as="points">
              <mxPoint x="850" y="490" />
              <mxPoint x="660" y="490" />
            </Array>
          </mxGeometry>
        </mxCell>
        <mxCell id="1OdgZpJMKYCvz7Xs0OIa-32" value="is first&lt;br&gt;run?" style="rhombus;whiteSpace=wrap;html=1;" vertex="1" parent="1">
          <mxGeometry x="810" y="370" width="80" height="80" as="geometry" />
        </mxCell>
        <mxCell id="1OdgZpJMKYCvz7Xs0OIa-34" value="no" style="text;html=1;align=center;verticalAlign=middle;resizable=0;points=[];autosize=1;strokeColor=none;fillColor=none;" vertex="1" parent="1">
          <mxGeometry x="890" y="380" width="40" height="30" as="geometry" />
        </mxCell>
      </root>
    </mxGraphModel>
  </diagram>
</mxfile>
